<svg width="66" height="75" viewBox="0 0 66 75" fill="none" xmlns="http://www.w3.org/2000/svg">
<g clip-path="url(#clip0_152_176)">
<path d="M12.6322 30.7969C12.6322 30.7969 9.95828 54.0327 33.563 54.0327C55.4157 54.0327 53.295 34.4851 53.4794 30.7969" stroke="#00335E" stroke-width="4.18918" stroke-miterlimit="10" stroke-linecap="round"/>
<path d="M53.4795 39.0951C58.2742 39.0951 59.2885 36.5133 59.3807 34.2082C59.5651 31.6264 59.0118 29.3213 57.9976 29.3213" stroke="#00335E" stroke-width="4.18918" stroke-miterlimit="10" stroke-linecap="round"/>
<path d="M8.11428 27.6621C8.11428 27.6621 5.62472 28.7686 5.90134 32.6412C6.27016 36.5139 7.92986 38.5424 12.4479 38.5424" stroke="#00335E" stroke-width="4.18918" stroke-miterlimit="10" stroke-linecap="round"/>
<path d="M48.2238 72.7503C48.2238 72.7503 60.6716 73.0269 62.0547 72.7503C65.1897 72.1971 63.2534 68.4166 63.2534 68.4166C63.2534 68.4166 57.6288 62.331 47.3018 59.4727" stroke="#00335E" stroke-width="4.18918" stroke-miterlimit="10" stroke-linecap="round" stroke-linejoin="round"/>
<path d="M15.4906 59.8418C5.90122 63.53 2.30519 69.0624 2.30519 69.0624C2.30519 69.0624 1.38314 72.3818 4.51813 72.3818C16.4127 72.2896 15.4906 72.2896 16.4127 72.2896" stroke="#00335E" stroke-width="4.18918" stroke-miterlimit="10" stroke-linecap="round" stroke-linejoin="round"/>
<path d="M52.4653 10.8802C48.5926 6.2699 41.9538 2.48946 33.1021 2.12064C22.4984 1.65961 16.3206 6.45431 12.8168 11.1568C12.8168 11.1568 10.3272 14.2918 9.40519 17.8878C7.9299 22.4981 8.11431 26.3708 8.11431 26.3708C8.11431 26.3708 8.39093 29.5058 12.5402 29.5058C16.6894 29.5058 16.6894 26.5552 16.6894 24.0656C16.6894 21.5761 18.2569 16.7814 21.0231 18.5333C23.7893 20.2852 30.6125 27.2928 39.4643 28.6759C48.4082 30.059 58.0898 28.6759 58.0898 28.6759C58.0898 28.6759 58.5509 23.6968 56.0613 17.8878" stroke="#00335E" stroke-width="4.18918" stroke-miterlimit="10" stroke-linecap="round"/>
<path d="M48.039 58.9199L42.6911 72.7507L33.2861 66.7574L24.6188 72.843L16.228 59.5653L21.2993 53.2031L33.2861 66.7574L44.0742 53.2031L48.039 58.9199Z" stroke="#00335E" stroke-width="4.18918" stroke-miterlimit="10" stroke-linecap="round" stroke-linejoin="round"/>
</g>
<defs>
<clipPath id="clip0_152_176">
<rect width="65.9271" height="74.8711" fill="white"/>
</clipPath>
</defs>
</svg>
