<svg width="72" height="82" viewBox="0 0 72 82" fill="none" xmlns="http://www.w3.org/2000/svg">
<g clip-path="url(#clip0_152_168)">
<path d="M13.7128 33.4307C13.7128 33.4307 10.8101 58.654 36.4339 58.654C60.1558 58.654 57.8537 37.4344 58.0539 33.4307" stroke="#366EAF" stroke-width="4.54751" stroke-miterlimit="10" stroke-linecap="round"/>
<path d="M58.0537 42.4389C63.2585 42.4389 64.3596 39.6363 64.4596 37.134C64.6598 34.3314 64.0593 31.8291 62.9583 31.8291" stroke="#366EAF" stroke-width="4.54751" stroke-miterlimit="10" stroke-linecap="round"/>
<path d="M8.80833 30.0283C8.80833 30.0283 6.10582 31.2294 6.4061 35.4333C6.80647 39.6372 8.60814 41.8393 13.5127 41.8393" stroke="#366EAF" stroke-width="4.54751" stroke-miterlimit="10" stroke-linecap="round"/>
<path d="M59.3552 78.9731C59.3552 78.9731 65.8612 79.2734 67.3626 78.9731C70.7657 78.3726 68.6638 74.2688 68.6638 74.2688C68.6638 74.2688 59.6554 64.5598 43.2402 63.0584L43.1401 58.6543" stroke="#366EAF" stroke-width="4.54751" stroke-miterlimit="10" stroke-linecap="round" stroke-linejoin="round"/>
<path d="M26.7245 58.6543V62.3577C8.80789 65.2604 2.40195 74.9694 2.40195 74.9694C2.40195 74.9694 1.40102 78.5728 4.80418 78.5728C17.7161 78.4727 48.3445 78.7729 49.3454 78.7729" stroke="#366EAF" stroke-width="4.54751" stroke-miterlimit="10" stroke-linecap="round" stroke-linejoin="round"/>
<path d="M25.2231 62.6582C25.2231 62.6582 34.832 68.2634 44.541 63.2588" stroke="#366EAF" stroke-width="4.54751" stroke-miterlimit="10" stroke-linecap="round" stroke-linejoin="round"/>
<path d="M56.9527 11.811C52.7488 6.80638 45.5421 2.70258 35.9332 2.30221C24.4226 1.80174 17.316 6.80638 13.9128 12.1113C12.8118 13.8129 11.0101 17.5163 10.2094 19.4181C8.20753 24.2225 8.80809 28.6266 8.80809 28.6266C8.80809 28.6266 9.10836 32.0298 13.6125 32.0298C18.1167 32.0298 18.1167 28.8268 18.1167 26.1243C18.1167 23.4218 19.8183 18.217 22.8211 20.1187C25.8239 22.0205 33.2307 29.6275 42.8396 31.1289C52.5486 32.6303 63.0584 31.1289 63.0584 31.1289C63.0584 31.1289 63.5588 25.7239 60.8563 19.4181" stroke="#366EAF" stroke-width="4.54751" stroke-miterlimit="10" stroke-linecap="round"/>
</g>
<defs>
<clipPath id="clip0_152_168">
<rect width="71.5663" height="81.2753" fill="white"/>
</clipPath>
</defs>
</svg>
